# xmcd
# 
# Track frame offsets:
#     150
#     29553
#     56676
#     76715
#     105061
#     126505
#     160864
#     191434
#     214739
#     241443
#     270828
#     300577
#     325670
# 
# Disc length: 4773
# 
# Revision: 1
# Processed by: cddbd v1.5.2PL0 Copyright (c) Steve Scherf et al.
# Submitted via: fre:ac v1.0.31
# 
DISCID=a012a30d
DTITLE=Red Devils - Return of the Red Devils
DYEAR=2017
DGENRE=Blues
TTITLE0=Time to cry
TTITLE1=Mr. highway man
TTITLE2=Wish you would
TTITLE3=Blackwater roll
TTITLE4=She's Dangerous
TTITLE5=Blue Light
TTITLE6=Taildragger
TTITLE7=Who do you love
TTITLE8=Checkin' up on my baby
TTITLE9=No fightin'
TTITLE10=Devil Woman
TTITLE11=Automatic
TTITLE12=Backstroke:you were wrong
EXTD=YEAR: 2017
EXTT0=
EXTT1=
EXTT2=
EXTT3=
EXTT4=
EXTT5=
EXTT6=
EXTT7=
EXTT8=
EXTT9=
EXTT10=
EXTT11=
EXTT12=
PLAYORDER=
